<svg xmlns="http://www.w3.org/2000/svg" width="951" height="154" fill-rule="evenodd" stroke-linejoin="round" stroke-miterlimit="2" xmlns:v="https://vecta.io/nano"><path d="M199.61 114.258V39.279h27.13c5.317 0 10.037.919 14.111 2.758s7.304 4.482 9.639 7.925c2.286 3.448 3.478 7.582 3.478 12.402 0 4.959-1.093 9.148-3.23 12.556s-5.267 5.997-9.341 7.766-9.093 2.653-14.906 2.653h-14.906v28.918H199.61zm11.975-39.204h15.055c4.869 0 8.596-1.029 11.279-3.081s4.025-5.168 4.025-9.346c0-4.139-1.391-7.319-4.124-9.53s-6.459-3.319-11.08-3.319h-15.155v25.276zm69.761 39.204V39.279h12.024v63.948h32.645v11.031h-44.669zm63.601 0l29.117-74.979h13.018l29.912 74.979h-13.565l-6.907-17.888h-31.751l-6.658 17.888h-13.167zm22.906-28.223h25.44l-12.969-32.67-12.472 32.67zm83.326 28.223V50.26h-21.068V39.279h54.16V50.26h-21.068v63.998h-12.024zm59.675 0V39.279h46.309V50.26h-34.334v21.579h31.154v10.713h-31.154v31.706h-11.975zm110.903 1.605c-5.615 0-10.832-.989-15.652-2.971s-8.993-4.74-12.521-8.273c-3.578-3.538-6.31-7.677-8.298-12.427s-2.981-9.888-2.981-15.423c0-5.57.994-10.728 2.981-15.478s4.72-8.889 8.298-12.427c3.528-3.533 7.702-6.281 12.521-8.248s10.037-2.942 15.652-2.942 10.832.999 15.602 2.996 8.944 4.785 12.521 8.357 6.36 7.721 8.348 12.452 2.981 9.828 2.981 15.289c0 5.535-.994 10.673-2.981 15.423s-4.77 8.889-8.348 12.427-7.751 6.29-12.521 8.273-9.987 2.971-15.602 2.971zm0-11.354c3.776 0 7.304-.651 10.584-1.953s6.112-3.18 8.546-5.625 4.323-5.371 5.714-8.785 2.037-7.2 2.037-11.379c0-5.605-1.193-10.489-3.528-14.648-2.385-4.159-5.615-7.384-9.689-9.669s-8.596-3.423-13.664-3.423c-3.776 0-7.304.651-10.584 1.953-3.23 1.302-6.112 3.17-8.546 5.595s-4.373 5.351-5.714 8.76c-1.391 3.409-2.087 7.22-2.087 11.433 0 5.605 1.193 10.489 3.578 14.648s5.615 7.384 9.689 9.664c4.025 2.286 8.596 3.428 13.664 3.428zm68.172 9.749V39.279h28.372c5.168 0 9.689.899 13.515 2.703 3.776 1.804 6.758 4.368 8.844 7.687s3.13 7.264 3.13 11.836c0 3.712-.795 6.996-2.385 9.853s-3.826 5.207-6.708 7.046c-2.832 1.838-6.112 3.076-9.888 3.722l22.608 32.133h-14.509l-20.72-30.26h-10.236v30.26h-12.024zm12.024-40.222h14.36c4.82 0 8.596-1.034 11.329-3.105 2.683-2.072 4.025-5.033 4.025-8.889 0-3.965-1.193-7.051-3.627-9.267-2.385-2.211-6.012-3.319-10.882-3.319h-15.204v24.581zm73.091 40.222V39.279h11.627l30.558 49.752-4.621.055 29.415-49.807h11.428v74.979h-11.726l.149-59.019 2.335.805-25.49 42.041h-8.795l-25.987-42.041 1.938-.805.149 59.019h-10.981zm103.202 0l29.117-74.979h13.018l29.912 74.979h-13.565l-6.907-17.888H898.07l-6.658 17.888h-13.167zm22.906-28.223h25.44l-12.919-32.67-12.521 32.67z" fill="#fff" fill-rule="nonzero"/><path d="M.031 75.107V51.139h90.677v23.968H.031zm22.989 39.234V90.374h67.689v23.968H23.02zm22.35 39.234v-23.968h45.339v23.968H45.37z" fill="#007eff"/><path d="M107.349 121.164c13.388-10.179 22.037-26.29 22.037-44.399 0-30.723-24.947-55.639-55.683-55.639-13.813 0-26.458 4.996-36.194 13.363H9.646C23.39 13.695 46.957.02 73.703.02c42.376 0 76.771 34.408 76.771 76.746 0 30.349-17.597 56.576-43.125 69.065v-24.666z" fill="#fff"/></svg>