<?xml version="1.0" encoding="UTF-8" standalone="no"?><!DOCTYPE svg PUBLIC "-//W3C//DTD SVG 1.1//EN" "http://www.w3.org/Graphics/SVG/1.1/DTD/svg11.dtd"><svg width="50px" height="50px" version="1.1" xmlns="http://www.w3.org/2000/svg" xmlns:xlink="http://www.w3.org/1999/xlink" xml:space="preserve" xmlns:serif="http://www.serif.com/" style="fill-rule:evenodd;clip-rule:evenodd;stroke-linejoin:round;stroke-miterlimit:2;"><g transform="matrix(1,0,0,1,0,-67.184)"><g id="Artboard2" transform="matrix(0.962732,0,0,0.962732,112.159,-146.957)"><rect x="-116.5" y="222.43" width="51.936" height="51.936" style="fill:none;"/><g transform="matrix(2.85817,0,0,2.85817,-362.586,167.345)"><g transform="matrix(1,0,0,1,86.1846,24.4913)"><path d="M0,3.669L10.852,3.669L10.852,0.829L0,0.829L0,3.669ZM2.755,8.311L10.852,8.311L10.852,5.471L2.755,5.471L2.755,8.311ZM5.426,12.953L10.852,12.953L10.852,10.113L5.426,10.113L5.426,12.953Z" style="fill:rgb(0,126,255);"/></g><g transform="matrix(1,0,0,1,86.1846,17.5259)"><path d="M12.841,16.082C14.442,14.878 15.477,12.974 15.477,10.833C15.477,7.196 12.492,4.243 8.816,4.243C7.164,4.243 5.651,4.84 4.486,5.827L1.153,5.827C2.797,3.369 5.617,1.747 8.816,1.747C13.885,1.747 18,5.818 18,10.833C18,14.419 15.895,17.523 12.841,19L12.841,16.082Z" style="fill:white;"/></g></g></g></g></svg>