<?xml version="1.0" encoding="UTF-8" standalone="no"?><!DOCTYPE svg PUBLIC "-//W3C//DTD SVG 1.1//EN" "http://www.w3.org/Graphics/SVG/1.1/DTD/svg11.dtd"><svg width="53px" height="53px" version="1.1" xmlns="http://www.w3.org/2000/svg" xmlns:xlink="http://www.w3.org/1999/xlink" xml:space="preserve" xmlns:serif="http://www.serif.com/" style="fill-rule:evenodd;clip-rule:evenodd;stroke-linejoin:round;stroke-miterlimit:2;"><g transform="matrix(1,0,0,1,0,-230.524)"><g id="Artboard5" transform="matrix(0.273466,0,0,0.535848,-116.145,168.942)"><rect x="424.715" y="114.923" width="193.808" height="98.909" style="fill:none;"/><g transform="matrix(0.47305,0,0,0.238833,-989.771,386.802)"><g transform="matrix(-1.55492,2.22045e-16,-1.11022e-16,-1.39561,20214.3,33243.5)"><path d="M11075,24490.7L11075,24536.7L10918.8,24536.7L10918.8,24490.7L11075,24490.7ZM11035.4,24415.4L11035.4,24461.4L10918.8,24461.4L10918.8,24415.4L11035.4,24415.4ZM10996.9,24340.1L10996.9,24386.1L10918.8,24386.1L10918.8,24340.1L10996.9,24340.1Z" style="fill:rgb(0,126,255);"/></g><g transform="matrix(-1.67261,1.11022e-16,-1.11022e-16,-1.67261,18843.6,38340.8)"><path d="M9304.39,23408.5C9282.95,23424.8 9269.1,23450.6 9269.1,23479.6C9269.1,23528.8 9309.05,23568.7 9358.27,23568.7C9380.39,23568.7 9400.64,23560.7 9416.23,23547.3L9460.85,23547.3C9438.84,23580.6 9401.1,23602.5 9358.27,23602.5C9290.41,23602.5 9235.33,23547.4 9235.33,23479.6C9235.33,23431 9263.51,23389 9304.39,23369L9304.39,23408.5Z" style="fill:white;"/></g></g></g></g></svg>