<?xml version="1.0" encoding="UTF-8" standalone="no"?><!DOCTYPE svg PUBLIC "-//W3C//DTD SVG 1.1//EN" "http://www.w3.org/Graphics/SVG/1.1/DTD/svg11.dtd"><svg width="50px" height="50px" version="1.1" xmlns="http://www.w3.org/2000/svg" xmlns:xlink="http://www.w3.org/1999/xlink" xml:space="preserve" xmlns:serif="http://www.serif.com/" style="fill-rule:evenodd;clip-rule:evenodd;stroke-linejoin:round;stroke-miterlimit:2;"><g transform="matrix(1,0,0,1,-227.671,-67.184)"><g id="Artboard2" transform="matrix(0.962732,0,0,0.962732,339.829,-146.957)"><rect x="-116.5" y="222.43" width="51.936" height="51.936" style="fill:none;"/><clipPath id="_clip1"><rect x="-116.5" y="222.43" width="51.936" height="51.936"/></clipPath><g clip-path="url(#_clip1)"><g transform="matrix(-2.16398,0,0,-2.16398,-64.5649,274.366)"><circle cx="12" cy="12" r="12" style="fill:rgb(255,162,0);"/></g><g transform="matrix(2.16398,0,0,2.16398,-116.5,219.135)"><path d="M11.999,7.636L16.667,12.314L16.66,17.762L14.667,17.762L14.667,13.209C14.667,12.849 14.368,12.559 14,12.559L10,12.559C9.631,12.559 9.333,12.849 9.333,13.209L9.333,17.762L7.333,17.762L7.337,12.287L11.999,7.636ZM13.333,13.859L13.333,17.762L10.667,17.762L10.667,13.859L13.333,13.859ZM17.616,11.378L12.477,6.25C12.225,6 11.775,6 11.523,6.25L6.383,11.379C6.14,11.623 6,11.963 6,12.314L6,17.762C6,18.479 6.565,19.063 7.259,19.063L16.741,19.063C17.435,19.063 18,18.479 18,17.762L18,12.314C18,11.963 17.86,11.623 17.616,11.378Z" style="fill:white;fill-rule:nonzero;"/></g></g></g></g></svg>