<?xml version="1.0" encoding="UTF-8" standalone="no"?><!DOCTYPE svg PUBLIC "-//W3C//DTD SVG 1.1//EN" "http://www.w3.org/Graphics/SVG/1.1/DTD/svg11.dtd"><svg width="50px" height="50px" version="1.1" xmlns="http://www.w3.org/2000/svg" xmlns:xlink="http://www.w3.org/1999/xlink" xml:space="preserve" xmlns:serif="http://www.serif.com/" style="fill-rule:evenodd;clip-rule:evenodd;stroke-linejoin:round;stroke-miterlimit:2;"><g transform="matrix(1,0,0,1,-1083.11,0)"><g id="Artboard2" transform="matrix(0.962732,0,0,0.962732,1195.27,-214.141)"><rect x="-116.5" y="222.43" width="51.936" height="51.936" style="fill:none;"/><g transform="matrix(2.06489,0,0,2.06489,-121.506,217.425)"><path d="M15,2.5C8.088,2.5 2.5,8.088 2.5,15C2.5,21.913 8.088,27.5 15,27.5C21.912,27.5 27.5,21.913 27.5,15C27.5,8.088 21.912,2.5 15,2.5C10.392,2.5 10.392,2.5 15,2.5ZM18.238,10L15,13.238L11.763,10L10,11.762L13.237,15L10,18.237L11.763,20L15,16.763L18.238,20L20,18.237L16.762,15L20,11.762L18.238,10ZM5,15C5,20.513 9.488,25 15,25C20.513,25 25,20.513 25,15C25,9.488 20.513,5 15,5C9.488,5 5,9.488 5,15C5,18.675 5,18.675 5,15Z" style="fill:rgb(0,126,255);"/></g></g></g></svg>