<?xml version="1.0" encoding="UTF-8" standalone="no"?><!DOCTYPE svg PUBLIC "-//W3C//DTD SVG 1.1//EN" "http://www.w3.org/Graphics/SVG/1.1/DTD/svg11.dtd"><svg width="313px" height="313px" version="1.1" xmlns="http://www.w3.org/2000/svg" xmlns:xlink="http://www.w3.org/1999/xlink" xml:space="preserve" xmlns:serif="http://www.serif.com/" style="fill-rule:evenodd;clip-rule:evenodd;stroke-linejoin:round;stroke-miterlimit:2;"><g transform="matrix(1,0,0,1,0,-76.8805)"><g id="Artboard8" transform="matrix(1.48645,0,0,1.48645,501.386,348.349)"><rect x="-337.305" y="-182.629" width="210.569" height="210.569" style="fill:none;"/><clipPath id="_clip1"><rect x="-337.305" y="-182.629" width="210.569" height="210.569"/></clipPath><g clip-path="url(#_clip1)"><g transform="matrix(10.5285,0,0,10.5285,-358.362,-203.686)"><path d="M11.99,2C6.47,2 2,6.48 2,12C2,17.52 6.47,22 11.99,22C17.52,22 22,17.52 22,12C22,6.48 17.52,2 11.99,2C8.31,2 8.31,2 11.99,2ZM13,13L13,7L11,7L11,13L13,13ZM13,17L13,15L11,15L11,17L13,17ZM4,12C4,16.42 7.58,20 12,20C16.42,20 20,16.42 20,12C20,7.58 16.42,4 12,4C7.58,4 4,7.58 4,12C4,14.947 4,14.947 4,12Z" style="fill:white;"/></g></g></g></g></svg>