<?xml version="1.0" encoding="UTF-8" standalone="no"?><!DOCTYPE svg PUBLIC "-//W3C//DTD SVG 1.1//EN" "http://www.w3.org/Graphics/SVG/1.1/DTD/svg11.dtd"><svg width="50px" height="50px" version="1.1" xmlns="http://www.w3.org/2000/svg" xmlns:xlink="http://www.w3.org/1999/xlink" xml:space="preserve" xmlns:serif="http://www.serif.com/" style="fill-rule:evenodd;clip-rule:evenodd;stroke-linejoin:round;stroke-miterlimit:2;"><g transform="matrix(1,0,0,1,-340.053,-67.184)"><g id="Artboard2" transform="matrix(0.962732,0,0,0.962732,452.212,-146.957)"><rect x="-116.5" y="222.43" width="51.936" height="51.936" style="fill:none;"/><g transform="matrix(3.99504,0,0,3.99504,-110.73,222.43)"><path d="M5.056,7.222C3.859,7.222 2.889,6.252 2.889,5.056C2.889,3.859 3.859,2.889 5.056,2.889C6.252,2.889 7.222,3.859 7.222,5.056C7.222,6.252 6.252,7.222 5.056,7.222ZM0,5.056C0,7.583 1.685,10.231 5.056,13C8.426,10.231 10.111,7.583 10.111,5.056C10.111,2.261 7.851,0 5.056,0C2.261,0 0,2.261 0,5.056C0,7.583 0,7.583 0,5.056ZM5.056,1.444C7.053,1.444 8.667,3.058 8.667,5.056C8.667,6.399 7.716,8.038 6.475,9.523C5.974,10.123 5.47,10.646 5.056,11.048C4.642,10.646 4.137,10.123 3.636,9.523C2.395,8.038 1.444,6.399 1.444,5.056C1.444,3.058 3.058,1.444 5.056,1.444Z" style="fill:rgb(213,213,213);"/></g></g></g></svg>