<?xml version="1.0" encoding="UTF-8" standalone="no"?><!DOCTYPE svg PUBLIC "-//W3C//DTD SVG 1.1//EN" "http://www.w3.org/Graphics/SVG/1.1/DTD/svg11.dtd"><svg width="50px" height="50px" version="1.1" xmlns="http://www.w3.org/2000/svg" xmlns:xlink="http://www.w3.org/1999/xlink" xml:space="preserve" xmlns:serif="http://www.serif.com/" style="fill-rule:evenodd;clip-rule:evenodd;stroke-linejoin:round;stroke-miterlimit:2;"><g transform="matrix(1,0,0,1,-110.691,-67.184)"><g id="Artboard2" transform="matrix(0.962732,0,0,0.962732,222.85,-146.957)"><rect x="-116.5" y="222.43" width="51.936" height="51.936" style="fill:none;"/><clipPath id="_clip1"><rect x="-116.5" y="222.43" width="51.936" height="51.936"/></clipPath><g clip-path="url(#_clip1)"><g transform="matrix(3.99504,0,0,3.99504,-114.503,222.43)"><path d="M5.999,1.574L10.667,6.251L10.66,11.699L8.667,11.699L8.667,7.146C8.667,6.787 8.368,6.496 8,6.496L4,6.496C3.631,6.496 3.333,6.787 3.333,7.146L3.333,11.699L1.333,11.699L1.337,6.225L5.999,1.574ZM7.333,7.797L7.333,11.699L4.667,11.699L4.667,7.797L7.333,7.797ZM11.616,5.316L6.477,0.188C6.225,-0.063 5.775,-0.063 5.523,0.188L0.383,5.316C0.14,5.56 0,5.901 0,6.251L0,11.699C0,12.417 0.565,13 1.259,13L10.741,13C11.435,13 12,12.417 12,11.699L12,6.251C12,5.901 11.86,5.56 11.616,5.316Z" style="fill:rgb(213,213,213);fill-rule:nonzero;"/></g></g></g></g></svg>