<?xml version="1.0" encoding="UTF-8" standalone="no"?><!DOCTYPE svg PUBLIC "-//W3C//DTD SVG 1.1//EN" "http://www.w3.org/Graphics/SVG/1.1/DTD/svg11.dtd"><svg width="50px" height="50px" version="1.1" xmlns="http://www.w3.org/2000/svg" xmlns:xlink="http://www.w3.org/1999/xlink" xml:space="preserve" xmlns:serif="http://www.serif.com/" style="fill-rule:evenodd;clip-rule:evenodd;stroke-linejoin:round;stroke-miterlimit:2;"><g transform="matrix(1,0,0,1,-394.427,-67.184)"><g id="Artboard2" transform="matrix(0.962732,0,0,0.962732,506.586,-146.957)"><rect x="-116.5" y="222.43" width="51.936" height="51.936" style="fill:none;"/><clipPath id="_clip1"><rect x="-116.5" y="222.43" width="51.936" height="51.936"/></clipPath><g clip-path="url(#_clip1)"><g transform="matrix(3.99504,0,0,3.99504,-116.5,222.43)"><path d="M0,6.5C0,10.084 2.916,13 6.5,13C10.084,13 13,10.084 13,6.5C13,2.916 10.084,0 6.5,0C2.916,0 0,2.916 0,6.5ZM1.3,6.5C1.3,3.633 3.633,1.3 6.5,1.3C9.367,1.3 11.7,3.633 11.7,6.5C11.7,9.367 9.367,11.7 6.5,11.7C3.633,11.7 1.3,9.367 1.3,6.5ZM5.85,3.25L5.85,7.15L9.75,7.15L9.75,5.85L7.15,5.85L7.15,3.25L5.85,3.25Z" style="fill:rgb(213,213,213);"/></g></g></g></g></svg>