<?xml version="1.0" encoding="UTF-8" standalone="no"?><!DOCTYPE svg PUBLIC "-//W3C//DTD SVG 1.1//EN" "http://www.w3.org/Graphics/SVG/1.1/DTD/svg11.dtd"><svg width="311px" height="50px" version="1.1" xmlns="http://www.w3.org/2000/svg" xmlns:xlink="http://www.w3.org/1999/xlink" xml:space="preserve" xmlns:serif="http://www.serif.com/" style="fill-rule:evenodd;clip-rule:evenodd;stroke-linejoin:round;stroke-miterlimit:2;"><g transform="matrix(1,0,0,1,0,-67.184)"><g id="Artboard2" transform="matrix(5.96962,0,0,0.962732,695.464,-146.957)"><rect x="-116.5" y="222.43" width="51.936" height="51.936" style="fill:none;"/><g transform="matrix(0.0545497,0,0,0.338247,-192.352,-32.5178)"><g transform="matrix(0.496878,0,0,0.496878,-8244.74,-1838.13)"><path d="M19795.1,5446.25L19795.1,5295.35L19849.7,5295.35C19860.4,5295.35 19869.9,5297.2 19878.1,5300.9C19886.3,5304.6 19892.8,5309.92 19897.5,5316.85C19902.1,5323.79 19904.5,5332.11 19904.5,5341.81C19904.5,5351.79 19902.3,5360.22 19898,5367.08C19893.7,5373.94 19887.4,5379.15 19879.2,5382.71C19871,5386.27 19860.9,5388.05 19849.2,5388.05L19819.2,5388.05L19819.2,5446.25L19795.1,5446.25ZM19819.2,5367.35L19849.5,5367.35C19859.3,5367.35 19866.8,5365.28 19872.2,5361.15C19877.6,5357.02 19880.3,5350.75 19880.3,5342.34C19880.3,5334.01 19877.5,5327.61 19872,5323.16C19866.5,5318.7 19859,5316.48 19849.7,5316.48L19819.2,5316.48L19819.2,5367.35Z" style="fill:white;fill-rule:nonzero;"/><path d="M19959.6,5446.25L19959.6,5295.35L19983.8,5295.35L19983.8,5424.05L20049.5,5424.05L20049.5,5446.25L19959.6,5446.25Z" style="fill:white;fill-rule:nonzero;"/><path d="M20087.6,5446.25L20146.2,5295.35L20172.4,5295.35L20232.6,5446.25L20205.3,5446.25L20191.4,5410.25L20127.5,5410.25L20114.1,5446.25L20087.6,5446.25ZM20133.7,5389.45L20184.9,5389.45L20158.8,5323.7L20133.7,5389.45Z" style="fill:white;fill-rule:nonzero;"/><path d="M20301.4,5446.25L20301.4,5317.45L20259,5317.45L20259,5295.35L20368,5295.35L20368,5317.45L20325.6,5317.45L20325.6,5446.25L20301.4,5446.25Z" style="fill:white;fill-rule:nonzero;"/><path d="M20421.5,5446.25L20421.5,5295.35L20514.7,5295.35L20514.7,5317.45L20445.6,5317.45L20445.6,5360.88L20508.3,5360.88L20508.3,5382.44L20445.6,5382.44L20445.6,5446.25L20421.5,5446.25Z" style="fill:white;fill-rule:nonzero;"/><path d="M20644.7,5449.48C20633.4,5449.48 20622.9,5447.49 20613.2,5443.5C20603.5,5439.51 20595.1,5433.96 20588,5426.85C20580.8,5419.73 20575.3,5411.4 20571.3,5401.84C20567.3,5392.28 20565.3,5381.94 20565.3,5370.8C20565.3,5359.59 20567.3,5349.21 20571.3,5339.65C20575.3,5330.09 20580.8,5321.76 20588,5314.64C20595.1,5307.53 20603.5,5302 20613.2,5298.04C20622.9,5294.09 20633.4,5292.12 20644.7,5292.12C20656,5292.12 20666.5,5294.13 20676.1,5298.15C20685.7,5302.18 20694.1,5307.78 20701.3,5314.97C20708.5,5322.15 20714.1,5330.51 20718.1,5340.03C20722.1,5349.55 20724.1,5359.81 20724.1,5370.8C20724.1,5381.94 20722.1,5392.28 20718.1,5401.84C20714.1,5411.4 20708.5,5419.73 20701.3,5426.85C20694.1,5433.96 20685.7,5439.51 20676.1,5443.5C20666.5,5447.49 20656,5449.48 20644.7,5449.48ZM20644.7,5426.63C20652.3,5426.63 20659.4,5425.32 20666,5422.7C20672.6,5420.07 20678.3,5416.3 20683.2,5411.38C20688.1,5406.46 20691.9,5400.57 20694.7,5393.7C20697.5,5386.84 20698.8,5379.21 20698.8,5370.8C20698.8,5359.52 20696.4,5349.69 20691.7,5341.32C20686.9,5332.95 20680.4,5326.46 20672.2,5321.86C20664,5317.27 20654.9,5314.97 20644.7,5314.97C20637.1,5314.97 20630,5316.28 20623.4,5318.9C20616.9,5321.52 20611.1,5325.28 20606.2,5330.16C20601.3,5335.05 20597.4,5340.93 20594.7,5347.79C20591.9,5354.65 20590.5,5362.32 20590.5,5370.8C20590.5,5382.08 20592.9,5391.91 20597.7,5400.28C20602.5,5408.65 20609,5415.14 20617.2,5419.73C20625.3,5424.33 20634.5,5426.63 20644.7,5426.63Z" style="fill:white;fill-rule:nonzero;"/><path d="M20781.9,5446.25L20781.9,5295.35L20839,5295.35C20849.4,5295.35 20858.5,5297.16 20866.2,5300.79C20873.8,5304.42 20879.8,5309.58 20884,5316.26C20888.2,5322.94 20890.3,5330.88 20890.3,5340.08C20890.3,5347.55 20888.7,5354.16 20885.5,5359.91C20882.3,5365.66 20877.8,5370.39 20872,5374.09C20866.3,5377.79 20859.7,5380.28 20852.1,5381.58L20897.6,5446.25L20868.4,5446.25L20826.7,5385.35L20806.1,5385.35L20806.1,5446.25L20781.9,5446.25ZM20806.1,5365.3L20835,5365.3C20844.7,5365.3 20852.3,5363.22 20857.8,5359.05C20863.2,5354.88 20865.9,5348.92 20865.9,5341.16C20865.9,5333.18 20863.5,5326.97 20858.6,5322.51C20853.8,5318.06 20846.5,5315.83 20836.7,5315.83L20806.1,5315.83L20806.1,5365.3Z" style="fill:white;fill-rule:nonzero;"/><path d="M20953.2,5446.25L20953.2,5295.35L20976.6,5295.35L21038.1,5395.48L21028.8,5395.59L21088,5295.35L21111,5295.35L21111,5446.25L21087.4,5446.25L21087.7,5327.47L21092.4,5329.09L21041.1,5413.7L21023.4,5413.7L20971.1,5329.09L20975,5327.47L20975.3,5446.25L20953.2,5446.25Z" style="fill:white;fill-rule:nonzero;"/><path d="M21160.9,5446.25L21219.5,5295.35L21245.7,5295.35L21305.9,5446.25L21278.6,5446.25L21264.7,5410.25L21200.8,5410.25L21187.4,5446.25L21160.9,5446.25ZM21207,5389.45L21258.2,5389.45L21232.2,5323.7L21207,5389.45Z" style="fill:white;fill-rule:nonzero;"/></g><g><g transform="matrix(-0.58052,8.28989e-17,-4.14495e-17,-0.521041,7820.69,13589.5)"><path d="M11075,24490.7L11075,24536.7L10918.8,24536.7L10918.8,24490.7L11075,24490.7ZM11035.4,24415.4L11035.4,24461.4L10918.8,24461.4L10918.8,24415.4L11035.4,24415.4ZM10996.9,24340.1L10996.9,24386.1L10918.8,24386.1L10918.8,24340.1L10996.9,24340.1Z" style="fill:rgb(0,126,255);"/></g><g transform="matrix(-0.624457,4.14495e-17,-4.14495e-17,-0.624457,7308.94,15492.5)"><path d="M9304.39,23408.5C9282.95,23424.8 9269.1,23450.6 9269.1,23479.6C9269.1,23528.8 9309.05,23568.7 9358.27,23568.7C9380.39,23568.7 9400.64,23560.7 9416.23,23547.3L9460.85,23547.3C9438.84,23580.6 9401.1,23602.5 9358.27,23602.5C9290.41,23602.5 9235.33,23547.4 9235.33,23479.6C9235.33,23431 9263.51,23389 9304.39,23369L9304.39,23408.5Z" style="fill:white;"/></g></g></g></g></g></svg>