<?xml version="1.0" encoding="UTF-8" standalone="no"?><!DOCTYPE svg PUBLIC "-//W3C//DTD SVG 1.1//EN" "http://www.w3.org/Graphics/SVG/1.1/DTD/svg11.dtd"><svg width="50px" height="50px" version="1.1" xmlns="http://www.w3.org/2000/svg" xmlns:xlink="http://www.w3.org/1999/xlink" xml:space="preserve" xmlns:serif="http://www.serif.com/" style="fill-rule:evenodd;clip-rule:evenodd;stroke-linejoin:round;stroke-miterlimit:2;"><g transform="matrix(1,0,0,1,-169.64,-67.184)"><g id="Artboard2" transform="matrix(0.962732,0,0,0.962732,281.799,-146.957)"><rect x="-116.5" y="222.43" width="51.936" height="51.936" style="fill:none;"/><clipPath id="_clip1"><rect x="-116.5" y="222.43" width="51.936" height="51.936"/></clipPath><g clip-path="url(#_clip1)"><g transform="matrix(-2.16398,0,0,-2.16398,-64.5649,274.366)"><circle cx="12" cy="12" r="12" style="fill:rgb(112,0,255);"/></g><g transform="matrix(2.16398,0,0,2.16398,-116.5,222.43)"><path d="M13.57,16.531C14.2,15.632 14.854,14.311 14.985,12.6L16.758,12.6C16.528,14.431 15.265,15.942 13.57,16.531ZM7.241,12.6L9.037,12.6C9.16,14.317 9.806,15.634 10.444,16.537C8.742,15.95 7.472,14.437 7.241,12.6ZM10.463,7.457C9.832,8.356 9.171,9.682 9.039,11.4L7.241,11.4C7.473,9.557 8.752,8.038 10.463,7.457ZM10.247,11.4C10.431,9.437 11.435,8.07 12.016,7.438C12.616,8.081 13.604,9.435 13.775,11.4L10.247,11.4ZM10.248,12.6L13.777,12.6C13.594,14.566 12.587,15.933 12.007,16.565C11.379,15.899 10.415,14.563 10.248,12.6ZM16.758,11.4L14.987,11.4C14.864,9.691 14.225,8.378 13.59,7.477C15.275,8.071 16.529,9.576 16.758,11.4ZM18,12C18,8.698 15.317,6.011 12.017,6.001C12.014,6.001 12.012,6.001 12.009,6.001C12.007,6.001 12.003,6 12,6C8.692,6 6,8.692 6,12C6,15.308 8.692,18 12,18C12.004,18 12.007,17.999 12.009,17.999C12.01,17.999 12.011,18 12.012,18C12.014,18 12.016,17.999 12.017,17.999C15.317,17.99 18,15.302 18,12Z" style="fill:white;fill-rule:nonzero;"/></g></g></g></g></svg>